<svg data-name="Layer 1" xmlns="http://www.w3.org/2000/svg" viewBox="0 0 226.994 256" width="256" height="256"><path d="m110.181 243.295-4.272-2.136-91.517-52.279a5.51 5.51 0 0 1-3.148-5.284V59.925a5.74 5.74 0 0 1 3.935-5.846l81.173-35.978c3.823-1.686 7.758-3.373 11.243-5.172a5.74 5.74 0 0 1 5.284 0l74.316 33.729 23.723 10.569a6.296 6.296 0 0 1 4.272 6.633v121.198a6.296 6.296 0 0 1-3.935 6.521c-18.776 9.557-37.551 19.451-56.215 29.119l-43.285 22.486h-1.575Zm5.396-16.864 1.799-.899 82.073-42.61a2.586 2.586 0 0 0 1.574-2.698V70.83l-2.249 1.124-44.971 25.296-35.64 19.787a3.37 3.37 0 0 0-2.023 3.373v103.436Zm-8.882 0V120.636a3.26 3.26 0 0 0-1.799-3.26L27.882 71.842 25.97 70.83v108.269a2.36 2.36 0 0 0 1.461 2.361l64.309 36.651Zm86.233-161.11-1.799-1.124-78.7-34.965a3.94 3.94 0 0 0-2.811 0L55.203 53.291 31.368 63.86l2.361 1.35 33.729 20.237 41.711 24.734a3.15 3.15 0 0 0 2.586 0l30.806-17.089 36.089-20.124Z"/></svg>
