<svg data-name="Layer 1" xmlns="http://www.w3.org/2000/svg" viewBox="0 0 20.19 22.77"><path d="m9.8 21.64-.38-.19-8.14-4.65a.49.49 0 0 1-.28-.47v-11a.51.51 0 0 1 .35-.52l7.22-3.2c.34-.15.69-.3 1-.46a.51.51 0 0 1 .47 0l6.61 3 2.11.94a.56.56 0 0 1 .38.59v10.78a.56.56 0 0 1-.35.58c-1.67.85-3.34 1.73-5 2.59l-3.85 2H9.8Zm.48-1.5.16-.08 7.3-3.79a.23.23 0 0 0 .14-.24V6.3l-.2.1-4 2.25-3.17 1.76a.3.3 0 0 0-.18.3v9.2Zm-.79 0v-9.41a.29.29 0 0 0-.16-.29L2.48 6.39l-.17-.09v9.63a.21.21 0 0 0 .13.21l5.72 3.26Zm7.67-14.33-.16-.1-7-3.11a.35.35 0 0 0-.25 0L4.91 4.74l-2.12.94.21.12 3 1.8 3.71 2.2a.28.28 0 0 0 .23 0l2.74-1.52 3.21-1.79Z"/></svg>
